<?xml version="1.0" standalone="no"?>
<!DOCTYPE svg PUBLIC "-//W3C//DTD SVG 20010904//EN"
 "http://www.w3.org/TR/2001/REC-SVG-20010904/DTD/svg10.dtd">
<svg version="1.0" xmlns="http://www.w3.org/2000/svg"
 width="1600.000000pt" height="1600.000000pt" viewBox="0 0 1600.000000 1600.000000"
 preserveAspectRatio="xMidYMid meet">
<metadata>
Created by potrace 1.11, written by Peter Selinger 2001-2013
</metadata>
<g transform="translate(0.000000,1600.000000) scale(0.100000,-0.100000)"
fill="#000000" stroke="none">
<path d="M9149 14176 c-2 -2 -46 -7 -98 -10 -52 -4 -97 -8 -100 -10 -3 -2 -28
-7 -56 -10 -57 -6 -71 -9 -215 -37 -58 -12 -114 -23 -125 -25 -65 -12 -321
-93 -445 -141 -655 -251 -1259 -708 -1714 -1298 -43 -55 -83 -107 -89 -115 -7
-8 -43 -61 -81 -117 -74 -110 -75 -111 -151 -93 -22 5 -56 12 -75 15 -19 3
-42 8 -50 10 -77 22 -348 22 -535 0 -84 -10 -129 -16 -160 -21 -330 -52 -684
-171 -970 -325 -132 -72 -120 -64 -275 -166 -266 -174 -548 -433 -750 -689
-101 -127 -218 -299 -292 -429 -49 -85 -168 -320 -168 -330 0 -3 -9 -25 -19
-48 -30 -67 -77 -194 -112 -302 -17 -55 -34 -103 -38 -107 -3 -4 -42 -10 -86
-13 -81 -6 -128 -11 -200 -21 -675 -94 -1300 -447 -1733 -977 -286 -350 -478
-758 -560 -1187 -30 -156 -32 -168 -40 -255 -9 -104 -9 -440 0 -530 9 -82 34
-238 49 -304 6 -25 13 -56 15 -69 9 -47 77 -260 109 -342 235 -605 704 -1130
1279 -1430 346 -181 690 -280 1066 -307 122 -9 9995 -9 10115 0 136 10 189 16
320 38 582 96 1112 337 1575 716 108 89 342 318 416 408 27 33 52 62 55 65 3
3 32 41 65 85 258 343 438 701 553 1100 37 130 81 334 96 450 4 28 8 61 11 74
23 154 24 617 0 761 -3 14 -7 48 -10 75 -25 218 -104 513 -202 754 -265 652
-743 1208 -1359 1582 -205 124 -484 254 -675 313 -30 10 -62 20 -70 23 -23 9
-29 11 -124 37 -49 14 -90 27 -93 29 -2 3 -15 54 -28 113 -150 665 -494 1318
-960 1823 -445 481 -1002 844 -1607 1045 -125 42 -410 118 -483 130 -16 2 -61
9 -100 16 -108 17 -116 18 -180 25 -33 4 -73 9 -90 12 -37 6 -600 14 -606 9z
m546 -1220 c28 -4 75 -11 105 -16 30 -5 73 -12 95 -16 22 -3 101 -21 176 -40
823 -207 1514 -809 1837 -1600 72 -179 143 -429 167 -589 3 -22 7 -53 10 -70
4 -29 7 -54 20 -180 3 -33 8 -73 10 -90 2 -16 7 -59 10 -95 4 -36 8 -76 11
-90 2 -14 6 -54 10 -90 7 -81 12 -111 18 -118 3 -2 25 -6 48 -8 76 -5 259 -19
383 -29 709 -59 1326 -451 1677 -1065 237 -415 322 -902 243 -1395 -77 -484
-336 -944 -705 -1255 -36 -30 -67 -58 -70 -62 -3 -4 -63 -45 -133 -92 -307
-205 -652 -324 -1022 -352 -121 -10 -9887 -9 -9995 0 -246 21 -489 105 -692
239 -89 58 -99 66 -199 154 -208 184 -376 472 -444 758 -119 508 22 1035 377
1406 180 188 416 332 663 404 130 38 309 62 445 59 129 -2 146 -4 350 -40 80
-14 197 -34 260 -45 63 -11 126 -22 140 -25 14 -2 41 -7 60 -10 19 -3 38 -8
43 -11 4 -2 7 8 8 24 0 15 2 36 4 45 2 9 6 61 10 115 3 54 8 109 10 123 2 14
7 61 10 105 3 44 8 98 10 120 2 22 7 69 10 105 3 36 7 76 10 90 2 14 6 42 9
62 3 21 11 59 17 85 6 27 12 57 15 67 2 11 15 58 29 106 161 549 543 1011
1052 1277 194 101 426 175 667 212 97 16 163 19 336 16 118 -1 240 -7 270 -13
30 -6 71 -13 90 -17 19 -3 141 -31 270 -62 129 -30 250 -59 268 -63 21 -5 35
-4 39 4 11 16 113 227 113 232 0 14 171 345 221 429 57 94 156 235 236 335 20
25 102 110 182 190 375 373 828 619 1346 730 104 22 122 25 270 44 93 12 510
13 600 2z"/>
</g>
</svg>
